<svg width="150" height="80" viewBox="0 0 150 80" fill="none" xmlns="http://www.w3.org/2000/svg">
<path d="M30.8 6.80002L42.4 4.40002L90.0001 9.60002L133.6 4.40002L144.8 21.2L126 44.8L130.8 56L128.4 71.6L88.0001 74L47.2001 67.6L40 58L26 71.6L10.8 69.2V35.2L30.8 6.80002Z" fill="white"/>
<path d="M149.044 11.7873L148.921 11.388L148.768 10.9887C147.147 6.70378 143.945 3.35573 139.745 1.55884C137.341 0.522173 134.799 0 132.189 0C131.974 0 131.766 0 131.551 0.00767902L131.167 0.0230371L130.783 0.0537531C128.326 0.276445 125.907 0.852371 123.588 1.78153C123.488 1.81993 123.043 1.96583 123.043 1.96583C122.551 2.14245 122.06 2.32674 121.568 2.5264C119.395 1.25168 116.554 0.276445 112.891 0.0998272C112.584 0.0844692 112.277 0.0767902 111.962 0.0767902C108.852 0.0767902 105.78 0.790939 102.809 2.20388C101.204 2.97178 99.737 3.90094 98.3778 4.93761C97.9401 4.62277 97.487 4.32329 97.0263 4.04684C92.6953 1.44366 87.5197 0.130543 81.6606 0.130543C81.1077 0.130543 80.5395 0.130543 79.9635 0.161259C76.6923 0.222691 73.398 0.668074 70.1497 1.49741C66.9322 2.31138 63.876 3.70129 61.0271 5.6364C59.353 4.31561 57.5024 3.22519 55.4828 2.41121C51.9505 0.982914 48.2031 0.207333 44.3252 0.0921482C43.6571 0.0614321 42.9967 0.0383951 42.344 0.0383951C41.6913 0.0383951 40.9848 0.0614321 40.3168 0.0921482C36.3851 0.245729 32.6147 1.03667 29.1208 2.46496C24.9203 4.16971 21.2728 6.89576 18.2703 10.574L18.1782 10.6815C16.604 12.6473 15.2371 14.8051 14.116 17.0935L14.0622 17.2087C9.36264 26.9994 5.47706 37.2663 2.51296 47.7328C2.42081 48.0323 2.32866 48.3394 2.23651 48.6543C1.07698 52.248 0.347476 55.957 0.0633519 59.6276C-0.0211173 60.695 -0.0211173 61.77 0.0633519 62.8374V62.9603C0.54713 68.1743 2.99674 72.774 6.97447 75.9224C10.3609 78.5871 14.4922 80 18.9153 80C19.1611 80 19.4222 80 19.6756 79.9846H19.9827L20.2899 79.9462C25.2121 79.5469 29.6045 77.5427 32.9987 74.1486C35.2947 71.8526 37.1146 69.1649 38.4047 66.1547C38.5199 65.9013 38.6274 65.6479 38.7349 65.3945C40.4934 70.5241 43.7262 73.588 46.0299 75.2006C50.3532 78.2338 55.8514 79.762 62.3863 79.762H62.9391C63.2617 79.7696 63.5842 79.7696 63.9067 79.7696C66.1951 79.7696 68.6139 79.6084 71.0635 79.2859C74.6036 78.8251 77.9977 77.7347 81.1768 76.0453C84.379 78.6101 88.1494 79.977 92.1424 79.977C93.0409 79.977 93.9547 79.9079 94.8608 79.7696C97.6253 79.3319 100.228 78.4028 102.601 77.0205C103.338 76.5905 104.06 76.1144 104.751 75.5846C105.204 75.9301 105.665 76.2603 106.134 76.5675C109.167 78.5947 112.73 79.7082 116.439 79.7927L116.907 79.808L117.376 79.785C123.342 79.5162 128.464 76.8439 131.812 72.2442C133.962 69.2801 135.345 65.8476 135.913 62.0465C136.366 59.1361 136.366 56.2258 135.913 53.3922C135.575 51.2114 135.022 48.9998 134.27 46.819C133.886 45.6518 133.44 44.4999 132.956 43.3634C133.901 42.5341 134.83 41.6894 135.759 40.8447C136.02 40.6143 136.281 40.3763 136.543 40.1229C138.501 38.3337 140.436 36.3832 142.294 34.3098C144.974 31.3227 147.063 27.9823 148.529 24.3118C150.142 20.2419 150.311 15.9109 149.036 11.7873H149.044ZM127.067 30.0634C126.913 30.2169 126.752 30.3628 126.598 30.4934C123.642 33.2117 120.616 35.8149 117.506 38.3183C117.245 38.5563 116.984 38.779 116.715 38.994C115.955 39.6237 115.364 40.0845 114.941 40.3763C117.813 43.7166 119.894 47.3411 121.184 51.2421C121.684 52.6857 122.045 54.1217 122.267 55.5423C122.49 56.9706 122.49 58.445 122.252 59.9731C122.014 61.578 121.469 62.9603 120.632 64.1198C119.787 65.2793 118.497 65.8936 116.761 65.9781C115.648 65.9474 114.665 65.6479 113.797 65.0643C112.922 64.4884 112.108 63.7742 111.348 62.9372C109.843 61.2709 108.537 59.3742 107.431 57.2471C107.332 57.0628 107.209 56.8631 107.078 56.6481C106.103 55.0969 105.235 53.0159 104.467 50.4127C103.5 53.492 102.187 56.4715 100.543 59.3588C98.8923 62.2384 97.2644 64.1428 95.6594 65.0643C94.7687 65.5942 93.7781 65.9397 92.6953 66.1163C91.6203 66.2853 90.6066 65.9628 89.6544 65.1488C88.3106 63.7742 87.6886 61.793 87.7808 59.1975C87.8729 56.602 88.4028 53.7454 89.378 50.6047C90.3532 47.4717 91.4821 44.4154 92.7568 41.4437C94.0315 38.4642 95.1603 35.9378 96.1355 33.8568C96.4273 33.2194 96.6884 32.6589 96.9265 32.1597C97.0033 31.9985 97.0954 31.7911 97.2029 31.5224C97.6483 30.5471 98.2319 29.3185 98.9384 27.8288C99.6525 26.339 100.298 25.072 100.873 24.02C101.112 23.6514 101.35 23.2521 101.588 22.8297C102.164 21.8084 102.809 20.741 103.507 19.6352C104.199 18.5295 104.943 17.5773 105.734 16.7863C106.579 15.9416 107.593 15.2428 108.775 14.6746C109.965 14.1064 111.117 13.8529 112.254 13.9067C113.836 13.9835 114.842 14.3828 115.279 15.1123C115.709 15.8341 115.832 16.9169 115.648 18.3682C115.364 20.288 114.819 22.2 114.035 24.0968C113.659 25.0182 113.337 25.9397 113.045 26.8612C114.258 25.2025 115.855 23.4287 117.844 21.5473C119.833 19.666 121.668 18.1839 123.358 17.1012C124.701 16.2334 126.122 15.5347 127.62 15.0125C127.942 14.905 128.242 14.7975 128.533 14.6976C129.662 14.2215 130.822 13.9297 132.004 13.8222C132.795 13.7992 133.563 13.9451 134.3 14.2599C135.037 14.5748 135.552 15.1123 135.844 15.8802C136.182 16.986 136.128 18.1071 135.682 19.2359C134.838 21.3477 133.617 23.2905 132.004 25.0873C130.399 26.8766 128.756 28.5352 127.067 30.0634ZM62.9852 65.9397C59.0382 66.0165 56.028 65.3331 53.9624 63.8817C51.889 62.4304 51.029 59.7735 51.3745 55.9032C51.6049 53.0006 52.3959 50.6124 53.7397 48.731C55.0835 46.8497 57.3104 45.575 60.4204 44.9146C61.0808 44.784 61.9102 44.8762 62.9084 45.191C63.9067 45.5135 64.6823 46.0818 65.2198 46.9111C65.7573 47.7404 65.6882 48.8693 65.0048 50.2899C64.713 50.8428 64.4442 51.603 64.1908 52.5629C63.9451 53.5227 63.8683 54.4289 63.9758 55.2659C64.0833 56.1106 64.5133 56.6251 65.2812 56.8094C66.4408 56.9706 67.631 56.6097 68.852 55.742C70.0806 54.8743 71.1096 53.7838 71.9543 52.463C72.799 51.1499 73.2367 49.8675 73.2597 48.6312C73.2828 47.3949 72.6761 46.4888 71.4398 45.9052C70.7333 45.6134 70.0422 45.3369 69.3895 45.0758C66.387 43.9163 63.9451 42.7337 62.0561 41.5204C60.1747 40.3072 59.0382 38.6331 58.6389 36.506C58.2473 34.3713 58.7618 31.3381 60.1824 27.4141C60.9964 25.2793 61.9562 23.5746 63.0467 22.2999C64.1371 21.0251 65.358 19.8272 66.7019 18.7214C66.8324 18.5909 66.963 18.4757 67.0935 18.3682C69.1208 16.6328 71.2786 15.4732 73.5592 14.8896C75.8322 14.3137 78.1052 14.0065 80.3705 13.9835C84.2945 13.7992 87.4736 14.4366 89.9155 15.8956C92.3498 17.3623 93.4632 20.0115 93.2482 23.8587C93.1714 24.9107 93.0025 25.9551 92.7337 26.9841C92.4189 28.2741 91.8123 29.3876 90.9215 30.3398C89.9155 31.2075 88.7867 31.8526 87.5197 32.2749C86.2066 32.774 84.8474 32.9737 83.4498 32.8662C82.2672 32.7126 81.2536 32.2058 80.4089 31.3688C79.9098 30.7852 79.6717 30.1555 79.7024 29.4721C79.7255 28.7886 79.8944 28.1129 80.2093 27.4525C80.6086 26.6385 80.67 25.8936 80.4089 25.2256C80.1478 24.5498 79.426 24.2119 78.2357 24.2119C76.1854 24.3502 74.5498 25.31 73.3365 27.0993C72.4151 28.3125 71.747 29.6487 71.3246 31.1077C70.9023 32.5744 71.5243 33.7877 73.183 34.7629C74.4423 35.3158 75.7861 35.646 77.2068 35.7535C78.6888 35.884 80.0941 36.2526 81.4379 36.8593C84.7015 38.5717 86.3218 41.3208 86.2987 45.1142C86.0607 48.9077 84.9779 52.4016 83.0582 55.5884C81.1307 58.7752 78.6427 61.3553 75.5942 63.3289C73.613 64.5421 71.5166 65.2947 69.2897 65.5788C67.0628 65.8706 64.9664 65.9858 62.9852 65.9397ZM34.6804 49.7754C32.9295 49.6986 31.5243 49.4606 30.4723 49.0689C28.9979 52.9622 27.416 56.8247 25.7343 60.6412C25.1277 62.0618 24.2907 63.3058 23.2233 64.3732C22.1559 65.4406 20.8044 66.0395 19.1687 66.1701C17.7481 66.2238 16.5348 65.8553 15.5366 65.0643C14.5383 64.2734 13.9701 63.1599 13.8395 61.7086C13.8088 61.3937 13.8088 61.0789 13.8395 60.7641C14.0468 58.0227 14.5921 55.335 15.4598 52.7011C15.5596 52.3325 15.6671 51.9793 15.7746 51.6337C18.5391 41.8353 22.1252 32.3517 26.5176 23.1906C27.2087 21.7931 28.0227 20.503 28.9672 19.3127C30.4953 17.4467 32.2845 16.0952 34.3271 15.2659C36.3621 14.4366 38.5736 13.9835 40.9388 13.9067C41.8602 13.8529 42.8124 13.8529 43.7877 13.9067C46.076 13.9605 48.2492 14.3982 50.3072 15.2275C52.3575 16.0568 53.9393 17.5389 55.0451 19.6736C56.0204 21.7777 56.5041 23.9969 56.5041 26.3314C56.5041 28.6658 56.1509 30.9157 55.4444 33.1042C53.7781 38.0265 51.7508 41.7662 49.355 44.3079C46.9591 46.8497 44.3943 48.3932 41.6529 48.9461C38.7579 49.5834 36.4312 49.8599 34.6804 49.7754ZM42.2058 24.258C41.3381 24.1505 40.4396 24.1505 39.5181 24.258C39.3646 24.7034 39.1879 25.1411 39.0036 25.5558V25.6402C37.2682 30.2707 35.5788 34.8935 33.9509 39.5085C33.8664 39.6928 33.805 39.8618 33.7512 40.0154C34.7264 40.4377 35.7477 40.5068 36.8151 40.215C37.8825 39.9232 38.8193 39.4548 39.641 38.7944C41.269 37.2893 42.4131 35.4924 43.0735 33.3807C44.0257 31.0079 44.3482 28.5506 44.0641 25.9935C43.8261 25.0182 43.2041 24.4423 42.2058 24.258Z" fill="#FFD700"/>
<path d="M142.448 13.8376L142.386 13.6303L142.309 13.4306C141.365 10.9196 139.484 8.96143 137.034 7.90941C135.491 7.24901 133.863 6.91113 132.196 6.91113C132.058 6.91113 131.597 6.92649 131.597 6.92649L131.405 6.94185C129.578 7.10311 127.773 7.54081 126.045 8.24728C125.853 8.31639 125.661 8.3855 125.454 8.44694L125.339 8.48533C123.696 9.06894 122.106 9.80612 120.616 10.6815C119.28 8.96911 116.877 7.21061 112.584 7.00328C112.377 6.98792 112.177 6.98792 111.97 6.98792C109.896 6.98792 107.823 7.4717 105.803 8.43926C103.907 9.34538 102.248 10.5126 100.858 11.8948C99.952 12.8009 99.0997 13.8453 98.301 14.9971C96.8727 12.4093 94.9223 10.8428 93.4786 9.97506C90.2304 8.02459 86.2604 7.04168 81.6683 7.04168C81.1768 7.04168 80.6854 7.04168 80.1786 7.07239C77.4141 7.11847 74.619 7.49474 71.8622 8.19353C68.5756 9.03054 65.4886 10.6662 62.6781 13.062C62.4861 13.2233 62.2865 13.3922 62.1022 13.5688C61.5109 14.0603 60.9426 14.5748 60.3821 15.1046C58.5468 12.225 55.9897 10.0672 52.9027 8.81553C50.1152 7.69439 47.1434 7.08007 44.0642 6.9956C43.4805 6.96489 42.9123 6.94953 42.3517 6.94953C41.7912 6.94953 41.1999 6.96489 40.6393 6.9956C37.4909 7.11079 34.4961 7.74047 31.7316 8.8616C28.614 10.1286 25.8879 12.1789 23.5842 14.9971C22.3249 16.5713 21.2268 18.2991 20.2976 20.1958C15.7593 29.6564 12.0119 39.57 9.15534 49.6833C9.05551 50.0058 8.95568 50.336 8.85585 50.6739C7.84222 53.7839 7.20487 56.9937 6.95914 60.1958C6.90538 60.8793 6.90538 61.5857 6.95914 62.3306C7.25862 65.6863 8.74835 68.5045 11.2594 70.4934C13.4095 72.1905 16.0588 73.0889 18.9154 73.0889C19.0843 73.0889 19.2532 73.0889 19.4222 73.0889H19.5758L19.7293 73.0735C22.9929 72.8048 25.8956 71.4917 28.1072 69.2724C29.7889 67.5907 31.1173 65.6172 32.0695 63.4057C33.0448 61.1941 33.9893 58.9518 34.9031 56.7019C35.0259 56.7096 35.1565 56.7096 35.287 56.7096C37.4602 56.7096 40.0096 56.387 43.0812 55.719C43.5497 55.6191 44.0181 55.504 44.4865 55.3657C43.7954 63.4057 47.0974 67.5216 49.9924 69.5489C53.1331 71.7451 57.3028 72.8585 62.3863 72.8585H62.9622C63.2771 72.8662 63.5919 72.8662 63.9067 72.8662C65.9033 72.8662 68.015 72.728 70.1805 72.4439C73.3596 72.0292 76.4005 70.9465 79.2033 69.2264L79.3416 69.1419C80.4397 68.4354 81.4686 67.6598 82.4592 66.8228C83.1427 68.1667 83.9566 69.2187 84.7245 69.9943L84.9242 70.2016L85.1392 70.3859C87.1818 72.1444 89.6007 73.0735 92.1425 73.0735C92.6877 73.0735 93.2329 73.0352 93.7781 72.9507C95.7132 72.6435 97.5255 71.9985 99.0997 71.0693C101.096 69.9251 102.931 68.1667 104.675 65.7324C105.174 66.3698 105.688 66.9918 106.226 67.583C107.37 68.8501 108.629 69.9405 109.965 70.8236C111.939 72.1444 114.166 72.8355 116.6 72.8892H116.831H117.069C120.893 72.7126 124.141 71.0463 126.222 68.1897C127.727 66.124 128.687 63.6975 129.079 61.0482C129.424 58.8213 129.432 56.6174 129.094 54.475C128.817 52.6781 128.357 50.8505 127.735 49.0382C126.882 46.4811 125.754 44.0161 124.348 41.6587C126.667 39.7236 128.948 37.727 131.167 35.6921C131.39 35.5001 131.605 35.3005 131.82 35.0931C133.64 33.4421 135.429 31.6299 137.157 29.7101C139.292 27.322 140.958 24.665 142.11 21.7854C143.131 19.1899 143.246 16.4485 142.44 13.8453L142.448 13.8376ZM49.3627 44.3079C46.9668 46.8497 44.402 48.3932 41.6606 48.9461C38.7656 49.5834 36.4389 49.8599 34.6881 49.7754C32.9373 49.6986 31.532 49.4606 30.48 49.0689C29.0056 52.9622 27.4237 56.8247 25.742 60.6412C25.1354 62.0618 24.2984 63.3058 23.231 64.3732C22.1636 65.4406 20.8121 66.0396 19.1765 66.1701C17.7558 66.2239 16.5426 65.8553 15.5443 65.0643C14.546 64.2734 13.9778 63.1599 13.8472 61.7086C13.8165 61.3938 13.8165 61.0789 13.8472 60.7641C14.0546 58.0227 14.5998 55.335 15.4675 52.7011C15.5673 52.3325 15.6748 51.9793 15.7823 51.6337C18.5468 41.8353 22.1329 32.3517 26.5253 23.1906C27.2164 21.7931 28.0304 20.503 28.9749 19.3127C30.503 17.4467 32.2922 16.0952 34.3348 15.2659C36.3698 14.4366 38.5813 13.9835 40.9465 13.9067C41.868 13.853 42.8201 13.853 43.7954 13.9067C46.0837 13.9605 48.2569 14.3982 50.3149 15.2275C52.3652 16.0568 53.947 17.5389 55.0528 19.6737C56.0281 21.7777 56.5118 23.9969 56.5118 26.3314C56.5118 28.6658 56.1586 30.9157 55.4521 33.1043C53.7858 38.0265 51.7585 41.7662 49.3627 44.3079ZM80.4166 25.2256C80.1555 24.5498 79.4337 24.212 78.2435 24.212C76.1932 24.3502 74.5575 25.3101 73.3442 27.0993C72.4228 28.3126 71.7547 29.6487 71.3323 31.1077C70.91 32.5744 71.532 33.7877 73.1907 34.7629C74.45 35.3158 75.7939 35.646 77.2145 35.7535C78.6965 35.8841 80.1018 36.2527 81.4456 36.8593C84.7092 38.5717 86.3295 41.3208 86.3064 45.1142C86.0684 48.9077 84.9856 52.4016 83.0659 55.5884C81.1384 58.7752 78.6504 61.3554 75.6019 63.3289C73.6207 64.5422 71.5243 65.2947 69.2974 65.5788C67.0705 65.8706 64.9741 65.9858 62.9929 65.9397C59.0459 66.0165 56.0357 65.3331 53.9701 63.8818C51.8967 62.4304 51.0367 59.7735 51.3823 55.9033C51.6126 53.0006 52.4036 50.6124 53.7474 48.7311C55.0912 46.8497 57.3181 45.575 60.4281 44.9146C61.0885 44.784 61.9179 44.8762 62.9161 45.191C63.9144 45.5136 64.69 46.0818 65.2275 46.9111C65.7651 47.7405 65.6959 48.8693 65.0125 50.2899C64.7207 50.8428 64.4519 51.603 64.1985 52.5629C63.9528 53.5228 63.876 54.4289 63.9835 55.2659C64.091 56.1106 64.521 56.6251 65.289 56.8094C66.4485 56.9706 67.6387 56.6097 68.8597 55.742C70.0883 54.8743 71.1173 53.7839 71.962 52.4631C72.8067 51.15 73.2444 49.8676 73.2675 48.6312C73.2905 47.3949 72.6838 46.4888 71.4475 45.9052C70.7411 45.6134 70.0499 45.3369 69.3972 45.0758C66.3947 43.9163 63.9528 42.7337 62.0638 41.5205C60.1824 40.3072 59.0459 38.6332 58.6466 36.5061C58.255 34.3713 58.7695 31.3381 60.1901 27.4141C61.0041 25.2793 61.9639 23.5746 63.0544 22.2999C64.1448 21.0252 65.3657 19.8272 66.7096 18.7215C66.8401 18.5909 66.9707 18.4757 67.1012 18.3682C69.1285 16.6328 71.2863 15.4732 73.5669 14.8896C75.8399 14.3137 78.1129 14.0065 80.3782 13.9835C84.3022 13.7992 87.4813 14.4366 89.9232 15.8956C92.3575 17.3623 93.471 20.0115 93.2559 23.8587C93.1791 24.9107 93.0102 25.9551 92.7414 26.9841C92.4266 28.2742 91.82 29.3876 90.9292 30.3398C89.9232 31.2075 88.7944 31.8526 87.5274 32.2749C86.2143 32.7741 84.8551 32.9737 83.4575 32.8662C82.2749 32.7126 81.2613 32.2058 80.4166 31.3688C79.9175 30.7852 79.6794 30.1555 79.7102 29.4721C79.7332 28.7887 79.9021 28.1129 80.217 27.4525C80.6163 26.6385 80.6777 25.8937 80.4166 25.2256ZM135.69 19.236C134.845 21.3477 133.625 23.2905 132.012 25.0874C130.407 26.8766 128.764 28.5352 127.074 30.0634C126.921 30.217 126.759 30.3628 126.606 30.4934C123.649 33.2118 120.624 35.815 117.514 38.3183C117.253 38.5564 116.992 38.7791 116.723 38.9941C115.963 39.6237 115.372 40.0845 114.949 40.3763C117.821 43.7167 119.902 47.3412 121.192 51.2421C121.691 52.6858 122.052 54.1217 122.275 55.5424C122.498 56.9706 122.498 58.445 122.26 59.9731C122.022 61.5781 121.476 62.9603 120.639 64.1198C119.795 65.2793 118.505 65.8937 116.769 65.9781C115.656 65.9474 114.673 65.6479 113.805 65.0643C112.93 64.4884 112.116 63.7743 111.355 62.9372C109.85 61.2709 108.545 59.3742 107.439 57.2471C107.339 57.0628 107.216 56.8631 107.086 56.6481C106.111 55.097 105.243 53.016 104.475 50.4128C103.507 53.4921 102.194 56.4715 100.551 59.3588C98.9 62.2385 97.2721 64.1428 95.6671 65.0643C94.7764 65.5942 93.7858 65.9397 92.7031 66.1164C91.628 66.2853 90.6144 65.9628 89.6622 65.1488C88.3183 63.7743 87.6963 61.7931 87.7885 59.1976C87.8806 56.6021 88.4105 53.7455 89.3857 50.6047C90.3609 47.4717 91.4898 44.4155 92.7645 41.4437C94.0392 38.4642 95.168 35.9378 96.1432 33.8568C96.435 33.2194 96.6961 32.6589 96.9342 32.1597C97.011 31.9985 97.1031 31.7911 97.2106 31.5224C97.656 30.5471 98.2396 29.3185 98.9461 27.8288C99.6602 26.339 100.305 25.072 100.881 24.02C101.119 23.6514 101.357 23.2521 101.595 22.8297C102.171 21.8084 102.816 20.741 103.515 19.6353C104.206 18.5295 104.951 17.5773 105.742 16.7863C106.587 15.9417 107.6 15.2429 108.783 14.6746C109.973 14.1064 111.125 13.853 112.262 13.9067C113.843 13.9835 114.849 14.3828 115.287 15.1123C115.717 15.8342 115.84 16.9169 115.656 18.3682C115.371 20.288 114.826 22.2001 114.043 24.0968C113.667 25.0183 113.344 25.9397 113.052 26.8612C114.266 25.2026 115.863 23.4287 117.852 21.5473C119.841 19.666 121.676 18.1839 123.365 17.1012C124.709 16.2335 126.13 15.5347 127.627 15.0125C127.95 14.905 128.249 14.7975 128.541 14.6977C129.67 14.2216 130.829 13.9298 132.012 13.8222C132.803 13.7992 133.571 13.9451 134.308 14.26C135.045 14.5748 135.56 15.1123 135.851 15.8802C136.189 16.986 136.136 18.1071 135.69 19.236ZM42.2135 24.258C41.3458 24.1505 40.4473 24.1505 39.5259 24.258C39.3723 24.7034 39.1957 25.1411 39.0114 25.5558V25.6403C37.2759 30.2707 35.5865 34.8935 33.9586 39.5086C33.8741 39.6929 33.8127 39.8618 33.7589 40.0154C34.7341 40.4377 35.7555 40.5068 36.8228 40.215C37.8902 39.9232 38.8271 39.4548 39.6487 38.7944C41.2767 37.2893 42.4208 35.4924 43.0812 33.3807C44.0334 31.0079 44.356 28.5506 44.0718 25.9935C43.8338 25.0183 43.2118 24.4423 42.2135 24.258Z" fill="black"/>
</svg>
